<svg xmlns="http://www.w3.org/2000/svg" viewBox="0 0 128 128" fill="none">
  <circle cx="64" cy="64" r="64" fill="#8b5cf6"/>
  <path d="M64 36c-12 0-22 8-22 20 0 6 3 11 7 15l2 3v10h26V74l2-3c4-4 7-9 7-15 0-12-10-20-22-20z" fill="white"/>
  <path d="M52 88h24v4a4 4 0 01-4 4H56a4 4 0 01-4-4v-4z" fill="white"/>
  <line x1="64" y1="50" x2="64" y2="70" stroke="#8b5cf6" stroke-width="3" stroke-linecap="round"/>
  <line x1="54" y1="58" x2="74" y2="58" stroke="#8b5cf6" stroke-width="3" stroke-linecap="round"/>
</svg>
